<svg width="16" height="16" viewBox="0 0 16 16" fill="none" xmlns="http://www.w3.org/2000/svg">
<path fill-rule="evenodd" clip-rule="evenodd" d="M8.00047 1.66675L8.00049 1.66677L8.00051 1.66679C9.33389 1.66679 12.6242 2.234 13.2518 6.00012C13.9032 9.90886 10.283 12.5722 8.14756 14.1432L8.00051 14.2515L8.00049 14.2514L8.00048 14.2514L7.85341 14.1432C5.71799 12.5722 2.09774 9.90881 2.74915 6.00008C3.3768 2.23396 6.66709 1.66675 8.00047 1.66675ZM8.00049 8.66679C9.10506 8.66679 10.0005 7.77136 10.0005 6.66679C10.0005 5.56222 9.10506 4.66679 8.00049 4.66679C6.89592 4.66679 6.00049 5.56222 6.00049 6.66679C6.00049 7.77136 6.89592 8.66679 8.00049 8.66679Z" fill="#CCCCCC"/>
<path d="M8.00049 1.66677L7.65982 1.98576L7.6638 1.98991L8.00049 1.66677ZM8.00047 1.66675L8.34111 1.34778L8.20281 1.20008L8.00047 1.20008L8.00047 1.66675ZM8.00051 1.66679L7.66382 1.98993L7.80157 2.13345L8.00051 2.13346L8.00051 1.66679ZM13.2518 6.00012L13.7121 5.92341L13.2518 6.00012ZM8.14756 14.1432L7.87102 13.7673L7.87093 13.7674L8.14756 14.1432ZM8.00051 14.2515L7.7888 14.6673L8.04532 14.7979L8.27715 14.6273L8.00051 14.2515ZM8.00049 14.2514L7.57722 14.448L7.6451 14.5942L7.78877 14.6673L8.00049 14.2514ZM8.00048 14.2514L8.42375 14.0549L8.37341 13.9465L8.27712 13.8756L8.00048 14.2514ZM7.85341 14.1432L8.13005 13.7673L8.12996 13.7673L7.85341 14.1432ZM2.74915 6.00008L2.28883 5.92337L2.74915 6.00008ZM8.34113 1.3478L8.34111 1.34778L7.65982 1.98571L7.65984 1.98573L8.34113 1.3478ZM8.33719 1.34365L8.33718 1.34363L7.6638 1.98991L7.66382 1.98993L8.33719 1.34365ZM13.7121 5.92341C13.3737 3.89284 12.3035 2.69365 11.123 2.01638C9.96284 1.35074 8.71916 1.20013 8.00051 1.20012L8.00051 2.13346C8.61523 2.13346 9.68339 2.26645 10.6586 2.82594C11.6135 3.37381 12.5023 4.34128 12.7915 6.07684L13.7121 5.92341ZM8.42411 14.5191C9.48559 13.7382 10.9736 12.6464 12.1079 11.2415C13.249 9.82806 14.0672 8.05371 13.7121 5.92341L12.7915 6.07684C13.0879 7.85526 12.4217 9.36697 11.3817 10.6552C10.3348 11.9519 8.94495 12.9772 7.87102 13.7673L8.42411 14.5191ZM8.27715 14.6273L8.4242 14.5191L7.87093 13.7674L7.72388 13.8756L8.27715 14.6273ZM7.78877 14.6673L7.7888 14.6673L8.21223 13.8356L8.21221 13.8356L7.78877 14.6673ZM7.57721 14.4479L7.57722 14.448L8.42376 14.0549L8.42375 14.0549L7.57721 14.4479ZM7.57678 14.519L7.72385 14.6273L8.27712 13.8756L8.13005 13.7673L7.57678 14.519ZM2.28883 5.92337C1.9338 8.05367 2.75201 9.82802 3.89312 11.2414C5.02734 12.6463 6.51538 13.7382 7.57687 14.5191L8.12996 13.7673C7.05602 12.9772 5.66623 11.9519 4.61932 10.6551C3.5793 9.36693 2.91308 7.85522 3.20947 6.0768L2.28883 5.92337ZM8.00047 1.20008C7.28181 1.20008 6.03813 1.3507 4.87793 2.01634C3.69745 2.69361 2.62724 3.8928 2.28883 5.92337L3.20947 6.0768C3.49871 4.34124 4.38746 3.37377 5.34239 2.8259C6.31759 2.2664 7.38574 2.13342 8.00047 2.13341L8.00047 1.20008ZM9.53382 6.66679C9.53382 7.51363 8.84733 8.20012 8.00049 8.20012V9.13346C9.36279 9.13346 10.4672 8.02909 10.4672 6.66679H9.53382ZM8.00049 5.13346C8.84733 5.13346 9.53382 5.81995 9.53382 6.66679H10.4672C10.4672 5.30449 9.36279 4.20012 8.00049 4.20012V5.13346ZM6.46716 6.66679C6.46716 5.81995 7.15365 5.13346 8.00049 5.13346V4.20012C6.63819 4.20012 5.53382 5.30449 5.53382 6.66679H6.46716ZM8.00049 8.20012C7.15365 8.20012 6.46716 7.51363 6.46716 6.66679H5.53382C5.53382 8.02909 6.63819 9.13346 8.00049 9.13346V8.20012Z" fill="#CCCCCC"/>
</svg>
