<svg width="16" height="16" viewBox="0 0 16 16" fill="none" xmlns="http://www.w3.org/2000/svg">
<path d="M1.83337 7.33333C1.83337 6.8731 2.20647 6.5 2.66671 6.5H4.16671V12.8333H2.66671C2.20647 12.8333 1.83337 12.4602 1.83337 12V7.33333Z" fill="#9A9A9A" stroke="#9A9A9A"/>
<path d="M11.0357 12.8333H5.83337V6.49998H6.76927C6.98877 6.49998 7.18261 6.35682 7.24716 6.14702L8.45446 2.22329C8.52579 1.99149 8.73995 1.83331 8.98247 1.83331C9.96608 1.83331 10.7183 2.71005 10.5687 3.68222L10.2238 5.92395C10.2016 6.06814 10.2435 6.21482 10.3385 6.32555C10.4335 6.43627 10.5721 6.49998 10.718 6.49998H11.4273C12.791 6.49998 13.8156 7.7447 13.5535 9.08298L13.1619 11.083C12.9628 12.0998 12.0718 12.8333 11.0357 12.8333Z" stroke="#9A9A9A" stroke-linecap="round" stroke-linejoin="round"/>
</svg>
