<svg width="16" height="16" viewBox="0 0 16 16" fill="none" xmlns="http://www.w3.org/2000/svg">
<path d="M11.6154 13.9999C11.0924 13.9999 10.3578 13.8108 9.25778 13.1963C7.9201 12.4463 6.88542 11.7539 5.55497 10.4272C4.27221 9.14546 3.64797 8.31563 2.77431 6.72615C1.78733 4.93148 1.95557 3.99076 2.14365 3.5887C2.36762 3.10816 2.69823 2.82074 3.12555 2.53547C3.36826 2.37648 3.62511 2.24019 3.89285 2.12832C3.91964 2.11681 3.94455 2.10582 3.96679 2.09591C4.09941 2.03618 4.30034 1.94591 4.55486 2.04234C4.72471 2.10609 4.87635 2.23654 5.11372 2.47092C5.60052 2.95092 6.26574 4.01995 6.51115 4.54496C6.67591 4.8988 6.78496 5.13238 6.78522 5.39435C6.78522 5.70105 6.63091 5.93757 6.44363 6.19284C6.40854 6.24078 6.37371 6.28659 6.33995 6.33105C6.13607 6.59891 6.09133 6.67633 6.1208 6.81454C6.18055 7.09231 6.62608 7.9192 7.35829 8.64965C8.09049 9.38011 8.89369 9.79743 9.17259 9.8569C9.31672 9.8877 9.39576 9.84109 9.67224 9.63002C9.71189 9.59975 9.75261 9.56841 9.79521 9.53707C10.0808 9.32466 10.3064 9.17439 10.6059 9.17439H10.6075C10.8682 9.17439 11.0914 9.28743 11.4611 9.47386C11.9433 9.71708 13.0447 10.3736 13.5278 10.8608C13.7627 11.0976 13.8937 11.2487 13.9578 11.4183C14.0542 11.6735 13.9634 11.8736 13.9042 12.0075C13.8943 12.0298 13.8833 12.0542 13.8718 12.0812C13.759 12.3484 13.6219 12.6047 13.4621 12.8468C13.1773 13.2727 12.8888 13.6024 12.4071 13.8266C12.1597 13.9436 11.889 14.0028 11.6154 13.9999Z" fill="#CCCCCC"/>
</svg>
