<svg width="96" height="83" viewBox="0 0 96 83" fill="none" xmlns="http://www.w3.org/2000/svg">
<g opacity="0.6">
<circle cx="48" cy="14" r="14" fill="#FF6B00"/>
<path d="M0 76C0 51.6995 19.6995 32 44 32H52C76.3005 32 96 51.6995 96 76V83H0V76Z" fill="#333333"/>
<rect x="44" y="8" width="2" height="3" rx="1" fill="white"/>
<rect x="50" y="8" width="2" height="3" rx="1" fill="white"/>
<path d="M73 36.3279V54.8745C73 55.6106 73.2031 56.3323 73.5869 56.9603L74.6853 58.7578C77.18 62.84 78.5 67.5314 78.5 72.3155V83H57V73.4072C57 67.9417 58.7223 62.6152 61.9223 58.1845L62.7427 57.0485C63.235 56.3669 63.5 55.5474 63.5 54.7066V34.0122C63.5 32.5818 64.9578 31.6138 66.2761 32.1689L71.7761 34.4847C72.5177 34.7969 73 35.5233 73 36.3279Z" fill="#FF6B00"/>
<path d="M25 54H37L36 69H26L25 54Z" fill="#FAFAFA"/>
<rect x="16" y="61" width="14" height="14" rx="7" fill="#FF6B00"/>
<rect x="30" y="46" width="2" height="8" fill="#FF6B00"/>
</g>
</svg>
