<svg width="97" height="83" viewBox="0 0 97 83" fill="none" xmlns="http://www.w3.org/2000/svg">
<circle cx="48.5" cy="14" r="14" fill="#FF6B00"/>
<path d="M0.5 76C0.5 51.6995 20.1995 32 44.5 32H52.5C76.8005 32 96.5 51.6995 96.5 76V83H0.5V76Z" fill="#333333"/>
<rect x="44.5" y="8" width="2" height="3" rx="1" fill="white"/>
<rect x="50.5" y="8" width="2" height="3" rx="1" fill="white"/>
<path d="M73.5 36.3279V54.8745C73.5 55.6106 73.7031 56.3323 74.0869 56.9603L75.1853 58.7578C77.68 62.84 79 67.5314 79 72.3155V83H57.5V73.4072C57.5 67.9417 59.2223 62.6152 62.4223 58.1845L63.2427 57.0485C63.735 56.3669 64 55.5474 64 54.7066V34.0122C64 32.5818 65.4578 31.6138 66.7761 32.1689L72.2761 34.4847C73.0177 34.7969 73.5 35.5233 73.5 36.3279Z" fill="#FF6B00"/>
<path d="M25.5 54H37.5L36.5 69H26.5L25.5 54Z" fill="#FAFAFA"/>
<rect x="16.5" y="61" width="14" height="14" rx="7" fill="#FF6B00"/>
<rect x="30.5" y="46" width="2" height="8" fill="#FF6B00"/>
</svg>
