<svg width="79" height="72" viewBox="0 0 79 72" fill="none" xmlns="http://www.w3.org/2000/svg">
<path d="M24 15.4C24 19.5974 27.3579 23 31.5 23C35.6421 23 39 19.5974 39 15.4C39 11.2026 35.6421 4 31.5 4C27.3579 4 24 11.2026 24 15.4Z" fill="#F83F69" stroke="#F83F69" stroke-width="7.45144" stroke-linejoin="round"/>
<path d="M0 59.9285V24.6893C0 20.3644 3.50603 16.8584 7.83093 16.8584H54.8165C59.1414 16.8584 62.6475 20.3644 62.6475 24.6893V59.9285C62.6475 64.2534 59.1414 67.7595 54.8165 67.7595H7.83093C3.50603 67.7595 0 64.2534 0 59.9285Z" fill="#FB849F"/>
<path d="M0 48.24V24.6893C0 20.3644 3.50603 16.8584 7.83093 16.8584H54.8165C59.1414 16.8584 62.6475 20.3644 62.6475 24.6893V49.5049C62.6475 51.6451 59.9451 52.5815 58.6209 50.9C57.0662 48.9258 54.1978 48.603 52.2432 50.1825L49.4008 52.4794C46.7874 54.5912 43.118 54.8005 40.2815 52.9995L36.3096 50.4777C33.3583 48.6038 29.5224 48.9132 26.9096 51.2357L26.6502 51.4662C23.7331 54.0593 19.3371 54.0593 16.4199 51.4662C13.6967 49.0456 9.6496 48.8652 6.72183 51.0339L6.24606 51.3863C3.66198 53.3005 0 51.4558 0 48.24Z" fill="#FEC9D5"/>
<path d="M21.3926 39.5415L21.5136 39.9475C22.6524 43.7664 27.6901 44.6041 30.0389 41.3848V41.3848C30.688 40.4951 32.0299 40.5207 32.6363 41.4399V41.4399C34.7755 44.682 39.693 44.1124 41.0344 40.4671L41.375 39.5415" stroke="#181818" stroke-width="3.78045" stroke-linecap="round" stroke-linejoin="round"/>
<rect x="13.8252" y="57.3169" width="15.1218" height="14.0417" rx="7.02083" fill="#FEC9D5"/>
<rect x="25.1758" y="29.9453" width="3.78334" height="6.30557" rx="1.89167" fill="#181818"/>
<rect x="33.373" y="29.9453" width="3.78334" height="6.30557" rx="1.89167" fill="#181818"/>
<rect x="35.2646" y="57.3169" width="15.1218" height="14.0417" rx="7.02083" fill="#FEC9D5"/>
<path fill-rule="evenodd" clip-rule="evenodd" d="M64.7737 13.8818C65.0664 13.3948 65.6985 13.2373 66.1856 13.53C66.6453 13.8064 66.8156 14.3896 66.5768 14.8699L59.6356 28.8319L56.809 27.1329L64.7737 13.8818ZM70.3766 35.2878L56.809 27.1329L53.4111 32.7861C51.5152 35.9405 52.0744 39.8861 54.5346 42.3986L43.0698 61.4731L46.4981 63.5337L57.963 44.4592C61.336 45.4529 65.0828 44.0954 66.9787 40.941L70.3766 35.2878ZM70.1089 15.8882C69.6352 15.6035 69.0212 15.7435 68.7177 16.2054L60.2009 29.1716L63.0275 30.8706L70.4815 17.2655C70.747 16.7808 70.5826 16.1729 70.1089 15.8882ZM72.675 18.5839C72.9784 18.122 73.5924 17.982 74.0661 18.2667C74.5398 18.5514 74.7043 19.1593 74.4387 19.6441L66.9847 33.2491L64.1581 31.5502L72.675 18.5839ZM77.9895 20.6249C77.5297 20.3485 76.9348 20.4718 76.6227 20.908L67.55 33.5889L70.3766 35.2878L78.3413 22.0367C78.634 21.5497 78.4765 20.9176 77.9895 20.6249Z" fill="#181818"/>
</svg>
