<svg width="24" height="24" viewBox="0 0 24 24" fill="none" xmlns="http://www.w3.org/2000/svg">
<circle cx="5" cy="8" r="2" fill="#9A9A9A"/>
<circle cx="15" cy="8" r="2" fill="#9A9A9A"/>
<circle cx="10" cy="6" r="2" fill="#9A9A9A"/>
<path d="M14.8747 12.4528L14.6707 11.9957C13.8572 10.1735 12.0482 9 10.0527 9C8.21942 9 6.52972 9.99207 5.63639 11.5929L5.21373 12.3503C5.07194 12.6044 4.96631 12.8771 4.89992 13.1604L4.7652 13.7352C4.37425 15.4032 5.64009 17 7.35331 17H7.62049C8.08058 17 8.5256 16.8359 8.87558 16.5373C9.53932 15.9709 10.5002 15.9192 11.2208 16.4112L11.4839 16.5908C11.8744 16.8574 12.3363 17 12.8091 17H12.8535C14.4611 17 15.6488 15.5017 15.282 13.9366L15.0701 13.0325C15.0235 12.8335 14.9581 12.6394 14.8747 12.4528Z" fill="#9A9A9A"/>
<circle cx="16.5" cy="16.5" r="5" fill="#9A9A9A" stroke="white"/>
<path d="M14 16.2857L16.1875 18L19 15" stroke="white" stroke-linecap="round" stroke-linejoin="round"/>
</svg>
