<svg width="144" height="125" viewBox="0 0 144 125" fill="none" xmlns="http://www.w3.org/2000/svg">
<rect x="76.5" y="63" width="3" height="4.5" rx="1.5" fill="white"/>
<circle cx="72" cy="21" r="21" fill="#FF6B00"/>
<path d="M0 114C0 77.5492 29.5492 48 66 48H78C114.451 48 144 77.5492 144 114V124.5H0V114Z" fill="#333333"/>
<path d="M33 56.8022V79.5L24 94.5V124.5H121.5V94.5L112.5 79.5V56.8022C112.5 55.565 111.74 54.4546 110.587 54.0062L103.087 51.0895C101.121 50.3247 99 51.7754 99 53.8855V79.5H46.5V53.8855C46.5 51.7754 44.3793 50.3247 42.4127 51.0895L34.9127 54.0062C33.7595 54.4546 33 55.565 33 56.8022Z" fill="#FF6B00"/>
<circle cx="39.75" cy="80.25" r="3.75" fill="#FAFAFA"/>
<circle cx="105.75" cy="80.25" r="3.75" fill="#FAFAFA"/>
<rect x="66" y="21" width="3" height="4.5" rx="1.5" fill="white"/>
<rect x="75" y="21" width="3" height="4.5" rx="1.5" fill="white"/>
<path d="M69 20.25L65.25 24L63.75 16.5L69 20.25Z" fill="#FF6B00"/>
<path d="M75 20.25L78.75 24L80.25 16.5L75 20.25Z" fill="#FF6B00"/>
</svg>
