<svg width="24" height="24" viewBox="0 0 24 24" fill="none" xmlns="http://www.w3.org/2000/svg">
<path fill-rule="evenodd" clip-rule="evenodd" d="M11.9999 2.5L12 2.50006L12.0001 2.50012C14.0001 2.50014 18.9355 3.35096 19.877 9.00012C20.8541 14.8632 15.4237 18.8583 12.2206 21.2148L12.0001 21.3771L12 21.3771L12 21.377L11.7794 21.2146C8.57625 18.8581 3.14587 14.8631 4.12299 9C5.06446 3.35084 9.99985 2.50002 11.9999 2.5ZM12 13.0001C13.6569 13.0001 15 11.657 15 10.0001C15 8.34327 13.6569 7.00012 12 7.00012C10.3431 7.00012 9 8.34327 9 10.0001C9 11.657 10.3431 13.0001 12 13.0001Z" fill="#FF6B00"/>
<path d="M12 2.50006L11.4897 2.97924L11.4917 2.98134L12 2.50006ZM11.9999 2.5L12.5102 2.02083L12.3029 1.8L11.9999 1.8L11.9999 2.5ZM12.0001 2.50012L11.4918 2.9814L11.6988 3.20012L12.0001 3.20012L12.0001 2.50012ZM19.877 9.00012L19.1865 9.11519L19.1865 9.11519L19.877 9.00012ZM12.2206 21.2148L11.8058 20.6509L11.8057 20.651L12.2206 21.2148ZM12.0001 21.3771L11.6779 21.9985L12.0644 22.1989L12.415 21.9408L12.0001 21.3771ZM12 21.3771L11.3709 21.6841L11.4724 21.892L11.6778 21.9985L12 21.3771ZM12 21.377L12.629 21.07L12.5535 20.9153L12.4149 20.8133L12 21.377ZM11.7794 21.2146L12.1943 20.6509L12.1942 20.6508L11.7794 21.2146ZM4.12299 9L4.81347 9.11507L4.12299 9ZM12.5103 2.02089L12.5102 2.02083L11.4897 2.97917L11.4897 2.97924L12.5103 2.02089ZM12.5084 2.01884L12.5083 2.01878L11.4917 2.98134L11.4918 2.9814L12.5084 2.01884ZM20.5675 8.88505C20.0599 5.83922 18.4546 4.04043 16.6839 3.02453C14.9436 2.02606 13.0781 1.80013 12.0001 1.80012L12.0001 3.20012C12.9222 3.20013 14.5244 3.39962 15.9872 4.23886C17.4196 5.06066 18.7527 6.51187 19.1865 9.11519L20.5675 8.88505ZM12.6354 21.7786C14.2277 20.6072 16.4597 18.9695 18.1611 16.8621C19.8727 14.742 21.1 12.0805 20.5675 8.88505L19.1865 9.11519C19.6311 11.7828 18.6318 14.0504 17.0718 15.9827C15.5014 17.9278 13.4167 19.4658 11.8058 20.6509L12.6354 21.7786ZM12.415 21.9408L12.6356 21.7785L11.8057 20.651L11.5851 20.8133L12.415 21.9408ZM11.6778 21.9985L11.6779 21.9985L12.3223 20.7557L12.3222 20.7556L11.6778 21.9985ZM11.3709 21.6841L11.3709 21.6841L12.6291 21.07L12.629 21.07L11.3709 21.6841ZM11.3644 21.7784L11.585 21.9408L12.4149 20.8133L12.1943 20.6509L11.3644 21.7784ZM3.43252 8.88493C2.89997 12.0804 4.12728 14.7419 5.83894 16.862C7.54028 18.9693 9.77234 20.6071 11.3646 21.7785L12.1942 20.6508C10.5833 19.4657 8.4986 17.9277 6.92825 15.9826C5.36821 14.0503 4.36889 11.7827 4.81347 9.11507L3.43252 8.88493ZM11.9999 1.8C10.9219 1.80001 9.05643 2.02594 7.31613 3.0244C5.54543 4.04031 3.94012 5.83909 3.43252 8.88493L4.81347 9.11507C5.24733 6.51175 6.58045 5.06054 8.01283 4.23874C9.47562 3.3995 11.0778 3.20001 11.9999 3.2L11.9999 1.8ZM14.3 10.0001C14.3 11.2704 13.2703 12.3001 12 12.3001V13.7001C14.0435 13.7001 15.7 12.0436 15.7 10.0001H14.3ZM12 7.70012C13.2703 7.70012 14.3 8.72987 14.3 10.0001H15.7C15.7 7.95667 14.0435 6.30012 12 6.30012V7.70012ZM9.7 10.0001C9.7 8.72987 10.7297 7.70012 12 7.70012V6.30012C9.95655 6.30012 8.3 7.95667 8.3 10.0001H9.7ZM12 12.3001C10.7297 12.3001 9.7 11.2704 9.7 10.0001H8.3C8.3 12.0436 9.95655 13.7001 12 13.7001V12.3001Z" fill="#FF6B00"/>
</svg>
