<svg width="24" height="24" viewBox="0 0 24 24" fill="none" xmlns="http://www.w3.org/2000/svg">
<circle cx="5" cy="8.5" r="2.5" fill="current"/>
<circle cx="19" cy="8.5" r="2.5" fill="current"/>
<circle cx="12" cy="5.5" r="2.5" fill="current"/>
<path d="M18.0934 14.316L17.8384 13.7446C16.8215 11.4669 14.5603 10 12.0658 10C9.77427 10 7.66215 11.2401 6.54549 13.2411L6.01716 14.1879C5.83992 14.5055 5.70789 14.8463 5.62489 15.2005L5.45649 15.919C4.96782 18.004 6.55011 20 8.69163 20H9.02562C9.60073 20 10.157 19.7949 10.5945 19.4216C11.4242 18.7136 12.6252 18.649 13.526 19.264L13.8549 19.4885C14.3431 19.8217 14.9203 20 15.5113 20H15.5669C17.5763 20 19.061 18.1271 18.6025 16.1707L18.3376 15.0406C18.2793 14.7919 18.1976 14.5492 18.0934 14.316Z" fill="current"/>
</svg>
