<svg width="213" height="273" viewBox="0 0 213 273" fill="none" xmlns="http://www.w3.org/2000/svg">
<path d="M12 248.5C12 240.125 18.0261 232.982 26.3094 231.746C46.0744 228.797 82.2584 224 108.5 224C134.742 224 170.926 228.797 190.691 231.746C198.974 232.982 205 240.125 205 248.5C205 256.875 198.974 264.018 190.691 265.254C170.926 268.203 134.742 273 108.5 273C82.2584 273 46.0744 268.203 26.3094 265.254C18.0261 264.018 12 256.875 12 248.5Z" fill="#FF6B00" fill-opacity="0.2"/>
<circle cx="114" cy="14" r="14" fill="#FF6B00"/>
<path d="M75.3869 70.4658C74.3748 49.0751 92.0601 32 113.475 32C135.304 32 153 49.696 153 71.5251V90.1163L143 130H84.9999C84.9999 130 79.0697 105.867 76.9999 90.1163C76.2195 84.1785 75.7117 77.3307 75.3869 70.4658Z" fill="#333333"/>
<rect x="105" y="8" width="2" height="3" rx="1" fill="white"/>
<rect x="111" y="8" width="2" height="3" rx="1" fill="white"/>
<path fill-rule="evenodd" clip-rule="evenodd" d="M114.889 60.7229C116.277 57.9458 117 54.8835 117 51.7786V48.4103C117 37.7078 126.583 29.5502 137.148 31.2593C145.23 32.5665 151.302 39.3376 151.725 47.5129L152.329 59.1862C152.442 61.3804 152.916 63.5409 153.732 65.5809L155.259 69.3968C156.081 71.4513 156.556 73.628 156.665 75.8382L157.464 92.0135C158.028 103.433 148.921 113 137.488 113H129C117.954 113 109 104.046 109 93V77.2213C109 74.1164 109.723 71.0542 111.111 68.2771L114.889 60.7229ZM145 48.3319C145 43.5642 141.466 39.535 136.739 38.913C131.049 38.1644 126 42.5929 126 48.3319V55C126 60.2467 130.253 64.5 135.5 64.5C140.747 64.5 145 60.2467 145 55V48.3319Z" fill="#FF6B00"/>
<path d="M86 58H98L97 73H87L86 58Z" fill="#FAFAFA"/>
<rect x="91" y="50" width="2" height="8" fill="#FF6B00"/>
<path d="M85.5 57H98.5V59H85.5V57Z" fill="#FAFAFA"/>
<rect x="92" y="63" width="14" height="14" rx="7" fill="#FF6B00"/>
<path d="M147.304 50.1613C148.497 43.6422 144.18 37.3899 137.661 36.1962C131.142 35.0026 124.89 39.3197 123.696 45.8387L147.304 50.1613ZM123.696 45.8387L118.499 74.2221L142.107 78.5446L147.304 50.1613L123.696 45.8387ZM126.555 69.7027L107.308 62.2999L98.6923 84.7001L117.94 92.103L126.555 69.7027ZM118.499 74.2221C119.176 70.5249 123.047 68.3534 126.555 69.7027L117.94 92.103C128.464 96.1507 140.076 89.6361 142.107 78.5446L118.499 74.2221Z" fill="#333333"/>
<path d="M85 126H144L144.563 126.781C150.015 134.355 152.642 143.69 152 153L71 150.5L85 126Z" fill="#FF6B00"/>
<path d="M92.5 135L83.3448 143.89C66.5558 160.192 52.4754 179.069 41.6345 199.808L35 212.5" stroke="#FF6B00" stroke-width="24"/>
<path d="M189.5 212.5L185.137 209.689C159.191 192.968 141.246 166.328 135.5 136V136" stroke="#FF6B00" stroke-width="24"/>
<path d="M17.7969 200.493C11.9941 197.292 4.69462 199.4 1.49307 205.203C-1.70849 211.006 0.400253 218.305 6.20307 221.507L17.7969 200.493ZM46.7969 216.493L17.7969 200.493L6.20307 221.507L35.2031 237.507L46.7969 216.493Z" fill="#333333"/>
<path d="M194.774 241.2C191.35 246.874 183.974 248.698 178.3 245.274C172.626 241.85 170.802 234.474 174.226 228.8L194.774 241.2ZM212.274 212.2L194.774 241.2L174.226 228.8L191.726 199.8L212.274 212.2Z" fill="#333333"/>
</svg>
