<svg width="144" height="124" viewBox="0 0 144 124" fill="none" xmlns="http://www.w3.org/2000/svg">
<ellipse cx="72" cy="20.9157" rx="21" ry="20.9157" fill="#FF6B00"/>
<path d="M0 113.807C0 77.3565 29.5492 47.8073 66 47.8073H78C114.451 47.8073 144 77.3565 144 113.807V124H0V113.807Z" fill="#333333"/>
<path d="M33 56.5853V79.1807L24 94.1204V124H121.5V94.1204L112.5 79.1807V56.5853C112.5 55.3465 111.739 54.2352 110.584 53.7878L103.084 50.8828C101.118 50.1213 99 51.5719 99 53.6803V79.1807H46.5V53.6803C46.5 51.5719 44.3825 50.1213 42.4165 50.8828L34.9165 53.7878C33.7613 54.2352 33 55.3465 33 56.5853Z" fill="#FF6B00"/>
<ellipse cx="39.75" cy="79.9277" rx="3.75" ry="3.73494" fill="#FAFAFA"/>
<ellipse cx="105.75" cy="79.9277" rx="3.75" ry="3.73494" fill="#FAFAFA"/>
<path d="M63 22.6526C63 22.6526 63.5 25.6526 66 25.6526C68.5 25.6526 69 22.6526 69 22.6526" stroke="white"/>
<path d="M75 22.6526C75 22.6526 75.5 25.6526 78 25.6526C80.5 25.6526 81 22.6526 81 22.6526" stroke="white"/>
</svg>
