<svg width="83" height="81" viewBox="0 0 83 81" fill="none" xmlns="http://www.w3.org/2000/svg">
<path fill-rule="evenodd" clip-rule="evenodd" d="M58.1394 5.85114C56.7351 3.68253 54.2944 2.24756 51.5185 2.24756C48.9401 2.24756 46.6509 3.48558 45.2129 5.3996C43.7749 3.48559 41.4857 2.24759 38.9074 2.24759C34.5543 2.24759 31.0254 5.77646 31.0254 10.1296C31.0254 14.4826 34.5543 18.0115 38.9074 18.0115C39.013 18.0115 39.1181 18.0094 39.2227 18.0053V30.6226H64.4449V18.0053C64.5495 18.0094 64.6546 18.0115 64.7602 18.0115C69.1133 18.0115 72.6422 14.4826 72.6422 10.1295C72.6422 5.77643 69.1133 2.24756 64.7602 2.24756C61.9843 2.24756 59.5436 3.68253 58.1394 5.85114Z" fill="#FFFAFB"/>
<path d="M58.1394 5.85114L57.0808 6.53659C57.3132 6.89554 57.7117 7.11225 58.1394 7.11225C58.567 7.11225 58.9655 6.89554 59.1979 6.53659L58.1394 5.85114ZM45.2129 5.3996L44.2047 6.15712C44.4429 6.47417 44.8163 6.66071 45.2129 6.66071C45.6095 6.66071 45.983 6.47417 46.2212 6.15711L45.2129 5.3996ZM39.2227 18.0053H40.4838C40.4838 17.6623 40.344 17.334 40.0967 17.0962C39.8494 16.8585 39.5159 16.7317 39.1731 16.7452L39.2227 18.0053ZM39.2227 30.6226H37.9615C37.9615 31.3191 38.5262 31.8837 39.2227 31.8837V30.6226ZM64.4449 30.6226V31.8837C65.1414 31.8837 65.7061 31.3191 65.7061 30.6226H64.4449ZM64.4449 18.0053L64.4945 16.7452C64.1517 16.7317 63.8182 16.8584 63.5709 17.0962C63.3236 17.334 63.1838 17.6622 63.1838 18.0053H64.4449ZM59.1979 5.16569C57.5711 2.65333 54.7398 0.986444 51.5185 0.986444V3.50867C53.8489 3.50867 55.8991 4.71173 57.0808 6.53659L59.1979 5.16569ZM51.5185 0.986444C48.5268 0.986444 45.8706 2.42466 44.2047 4.64208L46.2212 6.15711C47.4313 4.54649 49.3535 3.50867 51.5185 3.50867V0.986444ZM46.2212 4.64208C44.5552 2.42468 41.899 0.986475 38.9074 0.986475V3.5087C41.0723 3.5087 42.9946 4.54651 44.2047 6.15712L46.2212 4.64208ZM38.9074 0.986475C33.8578 0.986475 29.7643 5.07997 29.7643 10.1296H32.2865C32.2865 6.47296 35.2508 3.5087 38.9074 3.5087V0.986475ZM29.7643 10.1296C29.7643 15.1791 33.8578 19.2726 38.9074 19.2726V16.7504C35.2508 16.7504 32.2865 13.7861 32.2865 10.1296H29.7643ZM38.9074 19.2726C39.0295 19.2726 39.1511 19.2702 39.2722 19.2655L39.1731 16.7452C39.085 16.7487 38.9964 16.7504 38.9074 16.7504V19.2726ZM37.9615 18.0053V30.6226H40.4838V18.0053H37.9615ZM39.2227 31.8837H64.4449V29.3615H39.2227V31.8837ZM65.7061 30.6226V18.0053H63.1838V30.6226H65.7061ZM64.7602 16.7504C64.6711 16.7504 64.5826 16.7486 64.4945 16.7452L64.3954 19.2654C64.5165 19.2702 64.6381 19.2726 64.7602 19.2726V16.7504ZM71.381 10.1295C71.381 13.7861 68.4168 16.7504 64.7602 16.7504V19.2726C69.8098 19.2726 73.9033 15.1791 73.9033 10.1295H71.381ZM64.7602 3.50867C68.4168 3.50867 71.381 6.47293 71.381 10.1295H73.9033C73.9033 5.07994 69.8098 0.986444 64.7602 0.986444V3.50867ZM59.1979 6.53659C60.3796 4.71173 62.4298 3.50867 64.7602 3.50867V0.986444C61.5389 0.986444 58.7076 2.65333 57.0808 5.16569L59.1979 6.53659Z" fill="#FEC9D5"/>
<circle cx="51.676" cy="45.6833" r="19.4794" stroke="#FF0000" stroke-width="0.195773"/>
<path d="M20.3525 69.1761V33.9369C20.3525 29.612 23.8586 26.106 28.1835 26.106H75.1691C79.494 26.106 83 29.612 83 33.9369V69.1761C83 73.501 79.494 77.007 75.1691 77.007H28.1835C23.8586 77.007 20.3525 73.501 20.3525 69.1761Z" fill="#FB849F"/>
<path d="M20.3525 57.4876V33.9369C20.3525 29.612 23.8586 26.106 28.1835 26.106H75.1691C79.494 26.106 83 29.612 83 33.9369V58.7525C83 60.8927 80.2976 61.829 78.9735 60.1476C77.4187 58.1733 74.5503 57.8506 72.5958 59.43L69.7534 61.7269C67.1399 63.8388 63.4706 64.048 60.634 62.247L56.6621 59.7252C53.7108 57.8514 49.875 58.1607 47.2621 60.4833L47.0028 60.7138C44.0856 63.3068 39.6896 63.3068 36.7724 60.7138C34.0492 58.2932 30.0021 58.1128 27.0744 60.2815L26.5986 60.6339C24.0145 62.548 20.3525 60.7034 20.3525 57.4876Z" fill="#FEC9D5"/>
<path d="M41.7451 48.7896L41.8662 49.1955C43.0049 53.0145 48.0427 53.8521 50.3915 50.6328V50.6328C51.0405 49.7432 52.3824 49.7687 52.9889 50.6879V50.6879C55.128 53.93 60.0456 53.3604 61.3869 49.7151L61.7275 48.7896" stroke="#181818" stroke-width="3.78045" stroke-linecap="round" stroke-linejoin="round"/>
<rect x="34.1777" y="66.5645" width="15.1218" height="14.0417" rx="7.02083" fill="#FEC9D5"/>
<rect x="45.5283" y="39.1934" width="3.78334" height="6.30557" rx="1.89167" fill="#181818"/>
<rect x="53.7256" y="39.1934" width="3.78334" height="6.30557" rx="1.89167" fill="#181818"/>
<rect x="55.6172" y="66.5645" width="15.1218" height="14.0417" rx="7.02083" fill="#FEC9D5"/>
<line x1="45.3344" y1="19.0116" x2="45.3344" y2="26.7034" stroke="#FEC9D5" stroke-width="2.52223" stroke-linecap="round" stroke-linejoin="round"/>
<line x1="52.4056" y1="19.0116" x2="52.4056" y2="26.7034" stroke="#FEC9D5" stroke-width="2.52223" stroke-linecap="round" stroke-linejoin="round"/>
<line x1="58.6918" y1="19.0116" x2="58.6918" y2="26.7034" stroke="#FEC9D5" stroke-width="2.52223" stroke-linecap="round" stroke-linejoin="round"/>
<path d="M27.0289 38.1108C31.2736 43.5608 30.6531 50.8153 26.0751 54.3809C21.4971 57.9465 14.3115 56.772 10.0667 51.322C5.82196 45.8721 6.44251 38.6176 11.0205 35.0519C15.5985 31.4863 22.7841 32.6609 27.0289 38.1108Z" stroke="#181818" stroke-width="2.5"/>
<path d="M22.295 41.7975C24.504 44.6336 25.954 47.5533 26.5474 49.9418C26.8444 51.1377 26.9122 52.1418 26.7974 52.91C26.6838 53.6693 26.4076 54.1216 26.0749 54.3807C25.7422 54.6398 25.236 54.7969 24.472 54.7211C23.6991 54.6444 22.7421 54.3328 21.6554 53.752C19.4849 52.5919 17.0091 50.4711 14.8001 47.635C12.5912 44.7989 11.1411 41.8792 10.5478 39.4907C10.2507 38.2948 10.1829 37.2907 10.2978 36.5225C10.4113 35.7632 10.6876 35.3109 11.0203 35.0518C11.353 34.7926 11.8591 34.6356 12.6232 34.7114C13.3961 34.7881 14.353 35.0997 15.4398 35.6805C17.6103 36.8406 20.0861 38.9614 22.295 41.7975Z" stroke="#181818" stroke-width="2.5"/>
<rect x="25.4395" y="55.1924" width="2" height="14" transform="rotate(-37.9137 25.4395 55.1924)" fill="#181818"/>
<rect x="30.7959" y="63.6963" width="4" height="12" transform="rotate(-37.9137 30.7959 63.6963)" fill="#181818"/>
</svg>
