<svg width="32" height="32" viewBox="0 0 32 32" fill="none" xmlns="http://www.w3.org/2000/svg">
<circle cx="16" cy="16" r="16" fill="#FF6B00"/>
<path d="M23.9282 15.9282C23.9282 17.3325 23.5586 18.712 22.8564 19.9282C22.1543 21.1444 21.1444 22.1543 19.9282 22.8564C18.7121 23.5586 17.3325 23.9282 15.9282 23.9282C14.5239 23.9282 13.1444 23.5586 11.9282 22.8564" stroke="white" stroke-width="1.4" stroke-linecap="square"/>
<path d="M7.92918 15.9282C7.92918 14.5239 8.29883 13.1444 9.00098 11.9282C9.70312 10.7121 10.713 9.70219 11.9292 9.00004C13.1453 8.29789 14.5249 7.92824 15.9292 7.92824C17.3335 7.92824 18.713 8.29789 19.9292 9.00004" stroke="white" stroke-width="1.4" stroke-linecap="square"/>
<path d="M16.6968 10.5981L20.7949 9.50007L19.6968 5.40199" stroke="white" stroke-width="1.4"/>
<path d="M15.1606 21.2583L11.0625 22.3564L12.1606 26.4545" stroke="white" stroke-width="1.4"/>
</svg>
