<svg width="60" height="24" viewBox="0 0 60 24" fill="none" xmlns="http://www.w3.org/2000/svg">
<path d="M5.40438 18.086C4.01873 18.086 2.93793 17.8907 2.16295 17.5002C1.38699 17.1096 1 16.5314 1 15.7655C1 15.239 1.07423 14.8283 1.22269 14.5325C1.37116 14.2377 1.54436 14.0902 1.74231 14.0902C1.89077 14.0902 2.03924 14.1304 2.1877 14.2099C2.33616 14.2903 2.54203 14.4253 2.80629 14.6167C3.08639 14.8082 3.42488 15.0159 3.82078 15.239C4.21668 15.463 4.62446 15.6545 5.04609 15.8134C5.46673 15.9733 5.84185 16.0527 6.17242 16.0527C6.51883 16.0527 6.81576 15.9733 7.0632 15.8134C7.31063 15.6545 7.43435 15.4151 7.43435 15.0954C7.43435 14.8723 7.36804 14.6732 7.2364 14.4971C7.10378 14.3219 6.8405 14.1228 6.4446 13.8988L4.56408 12.8218C3.85443 12.4073 3.30215 11.9401 2.90625 11.4222C2.51036 10.9043 2.31241 10.2935 2.31241 9.59184C2.31241 8.50721 2.72414 7.63319 3.54959 6.97074C4.37405 6.30924 5.6439 5.97705 7.36012 5.97705C8.41519 5.97705 9.23173 6.07278 9.80975 6.26424C10.3868 6.4557 10.6758 6.80704 10.6758 7.31728C10.6758 7.82753 10.5887 8.27459 10.4165 8.65751C10.2442 9.04043 10.0166 9.2319 9.73552 9.2319C9.63654 9.2319 9.52866 9.20796 9.41385 9.1601C9.29805 9.11223 9.18225 9.06437 9.06744 9.0165C8.88532 8.93704 8.64679 8.80972 8.34987 8.63358C8.05294 8.45839 7.74414 8.29852 7.42148 8.15492C7.09883 8.01133 6.79003 7.93953 6.4931 7.93953C6.17935 7.93953 5.94478 8.02377 5.7884 8.19034C5.63103 8.35787 5.55284 8.54551 5.55284 8.75324C5.55284 8.99257 5.62311 9.2003 5.76267 9.37549C5.90222 9.55164 6.20409 9.72682 6.66532 9.90201L8.32314 10.5482C9.22975 10.8995 9.89487 11.3466 10.3145 11.8884C10.7352 12.4312 10.946 13.0774 10.946 13.827C10.946 14.7364 10.6896 15.5109 10.1789 16.1484C9.66722 16.787 8.99122 17.2694 8.14994 17.5959C7.30865 17.9223 6.39314 18.086 5.40339 18.086H5.40438Z" fill="#FF6B00" stroke="#FF6B00" stroke-miterlimit="10"/>
<path d="M16.0441 22.9922C15.0207 22.9922 14.213 22.8486 13.6192 22.5614C13.0253 22.2743 12.6047 21.8827 12.3572 21.3887C12.1098 20.8938 11.9861 20.3271 11.9861 19.6895C11.9861 19.3698 12.0514 19.1266 12.184 18.9601C12.3157 18.7925 12.4394 18.7092 12.5552 18.7092C12.6868 18.7092 12.8026 18.7609 12.9016 18.8643C13.0006 18.9677 13.149 19.0836 13.347 19.2109C13.6597 19.4023 14.0309 19.6091 14.4605 19.8331C14.889 20.0562 15.3423 20.2476 15.8214 20.4075C16.2994 20.5664 16.7527 20.6468 17.1823 20.6468C17.4297 20.6468 17.7019 20.5511 17.9988 20.3596C18.2957 20.1682 18.6045 19.7853 18.9272 19.2109C19.2498 18.6365 19.5666 17.7749 19.8793 16.6261L21.3392 11.1695H21.4629C20.8849 12.7337 20.2257 14.0213 19.4834 15.0351C18.7411 16.0489 17.9454 16.7946 17.0962 17.2733C16.246 17.7519 15.3849 17.9913 14.5109 17.9913C13.8181 17.9913 13.3064 17.8075 12.9768 17.4408C12.6462 17.0742 12.4819 16.5639 12.4819 15.9091C12.4819 15.5903 12.5027 15.239 12.5433 14.8561C12.5839 14.4732 12.6542 13.8748 12.7531 13.0611L13.6687 5.95312H15.8956C16.1757 5.95312 16.4439 6.10821 16.6993 6.42029C16.9546 6.73142 17.0833 7.11051 17.0833 7.55757C17.0833 7.78158 17.0714 8.0525 17.0457 8.37128C17.0209 8.69102 16.9873 9.04523 16.9467 9.43581C16.9051 9.82735 16.8517 10.238 16.7864 10.6688L16.4647 12.751C16.3984 13.198 16.3489 13.5532 16.3162 13.8155C16.2826 14.0787 16.2667 14.3219 16.2667 14.545C16.2667 14.7048 16.2875 14.8523 16.3281 14.9872C16.3687 15.1232 16.4647 15.1902 16.6132 15.1902C16.8111 15.1902 17.0665 15.0313 17.3802 14.7115C17.693 14.3927 18.0235 13.9782 18.37 13.467C18.7164 12.9568 19.042 12.4063 19.3478 11.8157C19.6527 11.226 19.9041 10.6468 20.102 10.081C20.3 9.51526 20.3989 9.03183 20.3989 8.63359C20.3989 8.36267 20.39 8.07069 20.3742 7.76052C20.3574 7.4494 20.3495 7.2139 20.3495 7.05403C20.3495 6.84725 20.5138 6.66345 20.8443 6.50358C21.1739 6.34466 21.5777 6.21256 22.0568 6.10917C22.5348 6.00578 22.9881 5.95408 23.4177 5.95408C23.7641 5.95408 24.0234 6.11395 24.1976 6.43274C24.3708 6.75248 24.4242 7.2072 24.3579 7.7969C24.3411 8.06877 24.3084 8.41149 24.259 8.826C24.2095 9.24147 24.1511 9.67992 24.0858 10.1423L23.2445 16.987C23.1118 18.088 22.807 19.0213 22.329 19.7872C21.8499 20.553 21.2689 21.1714 20.585 21.6424C19.9001 22.1125 19.1618 22.4561 18.37 22.6715C17.5782 22.8869 16.8022 22.9951 16.0441 22.9951V22.9922Z" fill="#FF6B00" stroke="#FF6B00" stroke-miterlimit="10"/>
<path d="M28.0202 18.0382C27.4263 18.0382 27.0304 17.8907 26.8325 17.5959C26.6345 17.301 26.5435 16.8664 26.5603 16.292C26.5762 15.7502 26.6217 15.104 26.6969 14.3535C26.7711 13.6039 26.8572 12.862 26.9562 12.1277L27.8222 5.83344C27.9044 5.22747 27.8876 4.71722 27.7728 4.30175C27.657 3.88724 27.5293 3.5158 27.3887 3.18936C27.2482 2.86292 27.1789 2.54701 27.1789 2.24354C27.1789 2.00422 27.3353 1.79265 27.649 1.6098C27.9618 1.42696 28.3458 1.27858 28.7991 1.16753C29.2524 1.05648 29.6859 1 30.0977 1C30.7242 1 31.1745 1.1838 31.4457 1.55045C31.7179 1.91806 31.8535 2.33257 31.8535 2.79495C31.8535 3.03428 31.8367 3.40954 31.804 3.91979C31.7704 4.43099 31.705 5.01303 31.6061 5.66687L30.8143 11.1714C30.649 12.3202 30.5213 13.4929 30.4302 14.6895C30.3392 15.8861 30.2531 17.0033 30.1709 18.0401H28.0182L28.0202 18.0382Z" fill="#FF6B00" stroke="#FF6B00" stroke-miterlimit="10"/>
<path d="M35.937 18.0142C35.2937 18.0142 34.7325 17.8342 34.2544 17.4762C33.7754 17.1172 33.5369 16.5466 33.5369 15.7645C33.5369 15.5252 33.5408 15.3021 33.5487 15.0944C33.5567 14.8876 33.5814 14.632 33.623 14.3285C33.6636 14.026 33.718 13.6106 33.7833 13.084L34.7236 5.95211H36.9505C37.2306 5.95211 37.4988 6.10719 37.7542 6.41928C38.0095 6.7304 38.1382 7.10949 38.1382 7.55656C38.1382 7.89161 38.1135 8.33102 38.064 8.87285C38.0145 9.41565 37.9403 10.014 37.8413 10.6678L37.5196 12.7499C37.4533 13.197 37.4038 13.5522 37.3712 13.8145C37.3375 14.0777 37.3217 14.3209 37.3217 14.5439C37.3217 14.7038 37.3424 14.8512 37.383 14.9862C37.4236 15.1222 37.5196 15.1892 37.6681 15.1892C37.866 15.1892 38.1253 15.0303 38.448 14.7105C38.7697 14.3917 39.1072 13.9686 39.4625 13.4421C39.8168 12.9156 40.1514 12.345 40.4641 11.7304C40.7769 11.1168 41.0332 10.5137 41.2312 9.92302C41.4291 9.33332 41.5281 8.81446 41.5281 8.3674C41.5281 8.00075 41.4826 7.69345 41.3915 7.44647C41.3004 7.19948 41.2638 6.99557 41.2807 6.8357C41.2807 6.69211 41.4123 6.56479 41.6766 6.45278C41.9398 6.34173 42.2585 6.24983 42.6287 6.17708C42.9989 6.10432 43.3591 6.04976 43.7055 6.00955C44.052 5.9703 44.3073 5.9502 44.4726 5.9502C44.819 5.9502 45.0951 6.11007 45.302 6.42885C45.5079 6.74859 45.5781 7.20331 45.5118 7.79301L44.3489 17.9405H42.3199C42.1051 17.9405 41.9072 17.8562 41.726 17.6897C41.5439 17.5221 41.3955 17.3182 41.2807 17.0789C41.1649 16.8396 41.1074 16.6089 41.1074 16.3848C41.1074 16.0182 41.1728 15.619 41.3054 15.1882C41.437 14.7574 41.6142 14.207 41.8379 13.5369C42.0616 12.8667 42.3209 12.0052 42.6178 10.9521V11.359C41.9745 12.9864 41.2896 14.2874 40.5641 15.26C39.8376 16.2336 39.0874 16.9353 38.3124 17.3661C37.5364 17.7969 36.7446 18.0123 35.937 18.0123V18.0142Z" fill="#FF6B00" stroke="#FF6B00" stroke-miterlimit="10"/>
<path d="M51.4511 18.086C50.692 18.086 50.0566 17.8428 49.5459 17.3565C49.0342 16.8702 48.7293 16.1321 48.6304 15.1432L48.086 9.78231C48.0523 9.41567 47.9989 9.04423 47.9257 8.66992C47.8514 8.29562 47.7564 7.99598 47.6406 7.77197C47.5248 7.54892 47.4258 7.39288 47.3437 7.3048C47.2606 7.21769 47.22 7.10951 47.22 6.98123C47.22 6.85295 47.3397 6.73042 47.5783 6.6098C47.8168 6.49014 48.1107 6.37909 48.4572 6.27474C48.8036 6.17135 49.1579 6.0919 49.5211 6.03541C49.8834 5.97989 50.1892 5.95117 50.4367 5.95117C50.8157 5.95117 51.0958 6.10338 51.2779 6.40589C51.4591 6.70936 51.5996 7.30768 51.6986 8.20084L52.3914 14.2797C52.4409 14.7431 52.5023 15.0695 52.5775 15.261C52.6527 15.4524 52.7715 15.5482 52.9358 15.5482C53.0179 15.5482 53.1743 15.4209 53.4059 15.1653C53.6365 14.9106 53.8889 14.5114 54.1601 13.9686C54.4323 13.4268 54.6629 12.7327 54.8529 11.8865C55.0419 11.0412 55.138 10.0283 55.138 8.84703C55.138 8.4641 55.0845 8.16925 54.9776 7.96152C54.8697 7.75474 54.8173 7.57093 54.8173 7.41106C54.8173 7.23588 54.9321 7.06069 55.1637 6.88455C55.3943 6.70936 55.6833 6.54949 56.0297 6.40589C56.3761 6.2623 56.7186 6.15125 57.0571 6.07084C57.3946 5.99138 57.6717 5.95117 57.8865 5.95117C58.1339 5.95117 58.3814 6.01531 58.6288 6.14263C58.8762 6.27091 59 6.60597 59 7.14781C59 7.88206 58.8802 8.72353 58.6417 9.67318C58.4021 10.6228 58.0597 11.5878 57.6143 12.569C57.1689 13.5503 56.6364 14.4597 56.0188 15.2974C55.4012 16.135 54.7074 16.8089 53.9404 17.3192C53.1733 17.8294 52.3449 18.085 51.4541 18.085L51.4511 18.086Z" fill="#FF6B00" stroke="#FF6B00" stroke-miterlimit="10"/>
</svg>
