<svg width="141" height="55" viewBox="0 0 141 55" fill="none" xmlns="http://www.w3.org/2000/svg">
<path d="M11.3317 42.1032C7.99836 42.1032 5.39831 41.6334 3.53399 40.6938C1.6673 39.7542 0.736328 38.3632 0.736328 36.5208C0.736328 35.2542 0.914903 34.2662 1.27205 33.5546C1.6292 32.8453 2.04587 32.4907 2.52207 32.4907C2.87922 32.4907 3.23637 32.5874 3.59352 32.7785C3.95067 32.972 4.44591 33.2967 5.08164 33.7573C5.75546 34.2179 6.56976 34.7176 7.52216 35.2542C8.47456 35.7931 9.45552 36.2537 10.4698 36.636C11.4817 37.0206 12.3841 37.2117 13.1794 37.2117C14.0127 37.2117 14.727 37.0206 15.3223 36.636C15.9175 36.2537 16.2152 35.6779 16.2152 34.9088C16.2152 34.3722 16.0556 33.8932 15.739 33.4694C15.4199 33.048 14.7866 32.569 13.8342 32.0301L9.31028 29.4392C7.60311 28.4421 6.27452 27.3182 5.32212 26.0723C4.36972 24.8264 3.89352 23.3572 3.89352 21.6691C3.89352 19.0598 4.88402 16.9573 6.86977 15.3636C8.85313 13.7723 11.9079 12.9731 16.0366 12.9731C18.5747 12.9731 20.539 13.2034 21.9295 13.664C23.3177 14.1246 24.0129 14.9698 24.0129 16.1973C24.0129 17.4248 23.8034 18.5002 23.3891 19.4214C22.9748 20.3426 22.4272 20.8032 21.751 20.8032C21.5129 20.8032 21.2533 20.7456 20.9771 20.6305C20.6986 20.5153 20.42 20.4002 20.1438 20.285C19.7057 20.0939 19.1319 19.7876 18.4176 19.3638C17.7033 18.9424 16.9604 18.5578 16.1842 18.2124C15.408 17.8669 14.6651 17.6942 13.9508 17.6942C13.1961 17.6942 12.6318 17.8969 12.2556 18.2976C11.877 18.7006 11.6889 19.152 11.6889 19.6517C11.6889 20.2274 11.8579 20.7272 12.1937 21.1486C12.5294 21.5724 13.2556 21.9938 14.3651 22.4152L18.3533 23.9697C20.5343 24.8149 22.1343 25.8904 23.1439 27.1939C24.1558 28.4996 24.6629 30.0541 24.6629 31.8573C24.6629 34.0451 24.0462 35.9082 22.8177 37.442C21.5867 38.9781 19.9605 40.1388 17.9366 40.9241C15.9128 41.7094 13.7104 42.1032 11.3294 42.1032H11.3317Z" fill="#FF6B00" stroke="#FF6B00" stroke-miterlimit="10"/>
<path d="M36.9271 53.9058C34.4652 53.9058 32.5223 53.5603 31.0937 52.8694C29.6651 52.1785 28.6532 51.2366 28.0579 50.0483C27.4627 48.8577 27.165 47.4943 27.165 45.9606C27.165 45.1914 27.3222 44.6064 27.6412 44.2057C27.9579 43.8027 28.2555 43.6024 28.5341 43.6024C28.8508 43.6024 29.1294 43.7267 29.3675 43.9754C29.6056 44.2242 29.9627 44.5028 30.4389 44.8091C31.1913 45.2697 32.0842 45.7671 33.1175 46.306C34.1485 46.8426 35.239 47.3032 36.3914 47.6878C37.5414 48.0701 38.6319 48.2635 39.6653 48.2635C40.2605 48.2635 40.9153 48.0332 41.6296 47.5726C42.3439 47.1121 43.0867 46.1909 43.8629 44.8091C44.6391 43.4273 45.4011 41.3547 46.1535 38.5911L49.6654 25.4643H49.963C48.5725 29.2273 46.9868 32.3248 45.2011 34.7636C43.4153 37.2025 41.501 38.9965 39.4581 40.1479C37.4128 41.2994 35.3414 41.8751 33.239 41.8751C31.5723 41.8751 30.3413 41.433 29.5484 40.5509C28.7532 39.6689 28.3579 38.4414 28.3579 36.8662C28.3579 36.0993 28.4079 35.2542 28.5055 34.333C28.6032 33.4118 28.7722 31.9724 29.0103 30.0149L31.2127 12.9155H36.57C37.2438 12.9155 37.889 13.2886 38.5033 14.0394C39.1176 14.7878 39.4272 15.6998 39.4272 16.7753C39.4272 17.3142 39.3986 17.9659 39.3367 18.7328C39.2771 19.502 39.1962 20.3541 39.0986 21.2937C38.9986 22.2356 38.87 23.2235 38.7129 24.2599L37.939 29.2688C37.7795 30.3443 37.6605 31.1987 37.5819 31.8297C37.5009 32.463 37.4628 33.0479 37.4628 33.5845C37.4628 33.9691 37.5128 34.3238 37.6105 34.6485C37.7081 34.9755 37.939 35.1367 38.2962 35.1367C38.7724 35.1367 39.3867 34.7544 40.1415 33.9852C40.8938 33.2183 41.6891 32.2212 42.5224 30.9914C43.3558 29.7639 44.1391 28.4397 44.8749 27.0188C45.6082 25.6002 46.213 24.2069 46.6892 22.8459C47.1654 21.4848 47.4035 20.3218 47.4035 19.3638C47.4035 18.7121 47.382 18.0097 47.344 17.2635C47.3035 16.515 47.2844 15.9485 47.2844 15.5639C47.2844 15.0665 47.6797 14.6243 48.4749 14.2397C49.2678 13.8574 50.2392 13.5396 51.3916 13.2909C52.5417 13.0422 53.6322 12.9178 54.6655 12.9178C55.4989 12.9178 56.1227 13.3024 56.5417 14.0693C56.9584 14.8385 57.087 15.9324 56.9275 17.351C56.887 18.005 56.8084 18.8295 56.6894 19.8267C56.5703 20.8262 56.4298 21.8809 56.2727 22.9932L54.2488 39.4593C53.9298 42.1077 53.1964 44.3531 52.0464 46.1955C50.894 48.0378 49.4964 49.5255 47.8511 50.6586C46.2035 51.7893 44.4272 52.6161 42.5224 53.1343C40.6176 53.6524 38.751 53.9127 36.9271 53.9127V53.9058Z" fill="#FF6B00" stroke="#FF6B00" stroke-miterlimit="10"/>
<path d="M65.7374 41.9879C64.3088 41.9879 63.3564 41.6333 62.8802 40.924C62.404 40.2147 62.185 39.1691 62.2254 37.7873C62.2635 36.4839 62.3731 34.9294 62.554 33.1239C62.7326 31.3207 62.9397 29.5359 63.1778 27.7695L65.2612 12.6276C65.4588 11.1698 65.4184 9.94236 65.1422 8.94288C64.8636 7.9457 64.5564 7.05216 64.2183 6.26685C63.8802 5.48154 63.7136 4.72157 63.7136 3.99153C63.7136 3.4158 64.0898 2.90684 64.8445 2.46698C65.5969 2.02712 66.5207 1.67016 67.6112 1.40302C68.7017 1.13587 69.7446 1 70.7351 1C72.2423 1 73.3256 1.44217 73.978 2.3242C74.6328 3.20853 74.959 4.20571 74.959 5.31803C74.959 5.89377 74.9185 6.79653 74.8399 8.024C74.759 9.25378 74.6018 10.654 74.3637 12.2269L72.4589 25.4689C72.0613 28.2324 71.7542 31.0535 71.5351 33.9322C71.3161 36.8109 71.1089 39.4984 70.9113 41.9925H65.7326L65.7374 41.9879Z" fill="#FF6B00" stroke="#FF6B00" stroke-miterlimit="10"/>
<path d="M84.7827 41.9305C83.2351 41.9305 81.885 41.4975 80.735 40.6362C79.5826 39.7726 79.0088 38.4001 79.0088 36.5185C79.0088 35.9428 79.0183 35.4062 79.0374 34.9065C79.0564 34.409 79.1159 33.7942 79.2159 33.0641C79.3136 32.3364 79.4445 31.3369 79.6017 30.0703L81.8636 12.9133H87.2208C87.8947 12.9133 88.5399 13.2864 89.1542 14.0371C89.7685 14.7856 90.078 15.6976 90.078 16.773C90.078 17.5791 90.0185 18.6361 89.8995 19.9396C89.7804 21.2454 89.6018 22.6847 89.3637 24.2576L88.5899 29.2666C88.4304 30.342 88.3113 31.1964 88.2328 31.8274C88.1518 32.4608 88.1137 33.0457 88.1137 33.5823C88.1137 33.9669 88.1637 34.3215 88.2613 34.6462C88.359 34.9733 88.5899 35.1345 88.9471 35.1345C89.4233 35.1345 90.0471 34.7522 90.8233 33.983C91.5971 33.2161 92.409 32.1982 93.2638 30.9316C94.1162 29.665 94.921 28.2924 95.6734 26.8139C96.4258 25.3377 97.0424 23.8869 97.5186 22.4659C97.9948 21.0473 98.2329 19.7991 98.2329 18.7236C98.2329 17.8416 98.1234 17.1024 97.9044 16.5082C97.6853 15.914 97.5972 15.4235 97.6377 15.0389C97.6377 14.6935 97.9544 14.3872 98.5901 14.1177C99.2234 13.8506 99.9901 13.6295 100.881 13.4545C101.771 13.2795 102.638 13.1482 103.471 13.0515C104.304 12.9571 104.919 12.9087 105.316 12.9087C106.15 12.9087 106.814 13.2933 107.312 14.0602C107.807 14.8294 107.976 15.9233 107.816 17.3419L105.019 41.7532H100.138C99.621 41.7532 99.1449 41.5505 98.7091 41.1498C98.271 40.7468 97.9139 40.2562 97.6377 39.6805C97.3591 39.1048 97.221 38.5498 97.221 38.0109C97.221 37.1288 97.3782 36.1685 97.6972 35.1322C98.0139 34.0958 98.4401 32.7716 98.9782 31.1596C99.5163 29.5475 100.14 27.4749 100.854 24.9416V25.9204C99.3068 29.8354 97.6591 32.9651 95.9138 35.3049C94.1662 37.647 92.3614 39.3351 90.4971 40.3714C88.6304 41.4077 86.7256 41.9259 84.7827 41.9259V41.9305Z" fill="#FF6B00" stroke="#FF6B00" stroke-miterlimit="10"/>
<path d="M122.105 42.1028C120.278 42.1028 118.75 41.5179 117.521 40.348C116.29 39.1781 115.557 37.4025 115.319 35.0236L114.009 22.1271C113.928 21.245 113.8 20.3515 113.623 19.451C113.445 18.5506 113.216 17.8297 112.938 17.2909C112.659 16.7543 112.421 16.3789 112.223 16.167C112.023 15.9574 111.926 15.6972 111.926 15.3886C111.926 15.08 112.214 14.7852 112.788 14.4951C113.362 14.2072 114.069 13.9401 114.902 13.689C115.735 13.4403 116.588 13.2492 117.462 13.1133C118.333 12.9797 119.069 12.9106 119.664 12.9106C120.576 12.9106 121.25 13.2768 121.688 14.0045C122.124 14.7346 122.462 16.1739 122.7 18.3226L124.366 32.9463C124.486 34.0609 124.633 34.8463 124.814 35.3068C124.995 35.7674 125.281 35.9977 125.676 35.9977C125.874 35.9977 126.25 35.6914 126.807 35.0765C127.362 34.464 127.969 33.5036 128.621 32.1979C129.276 30.8944 129.831 29.2247 130.288 27.1889C130.743 25.1554 130.974 22.7189 130.974 19.8771C130.974 18.9559 130.845 18.2466 130.588 17.7468C130.328 17.2494 130.202 16.8072 130.202 16.4226C130.202 16.0012 130.478 15.5798 131.036 15.156C131.59 14.7346 132.286 14.35 133.119 14.0045C133.952 13.6591 134.776 13.392 135.59 13.1985C136.402 13.0074 137.069 12.9106 137.586 12.9106C138.181 12.9106 138.776 13.0649 139.371 13.3712C139.967 13.6798 140.264 14.4859 140.264 15.7893C140.264 17.5557 139.976 19.58 139.402 21.8645C138.826 24.149 138.002 26.4704 136.931 28.8309C135.86 31.1915 134.579 33.3793 133.093 35.3944C131.607 37.4094 129.938 39.0307 128.093 40.2582C126.247 41.4857 124.255 42.1005 122.112 42.1005L122.105 42.1028Z" fill="#FF6B00" stroke="#FF6B00" stroke-miterlimit="10"/>
</svg>
