<svg width="328" height="328" viewBox="0 0 328 328" fill="none" xmlns="http://www.w3.org/2000/svg">
<g clip-path="url(#clip0_754_6849)">
<rect width="328" height="328" rx="71.0667" fill="white"/>
<rect y="169.467" width="328" height="87.4667" fill="#EDB683"/>
<path d="M0 71.0669H76.5333V87.4669C76.5333 108.601 59.4008 125.734 38.2667 125.734C17.1326 125.734 0 108.601 0 87.4669V71.0669Z" fill="#FF6B00"/>
<rect y="-10.9331" width="76.5333" height="103.867" fill="#FF842C"/>
<rect x="16.3999" y="180.4" width="295.2" height="49.2" fill="#C68A52"/>
<path d="M76.5332 71.0669H164V82.0002C164 106.153 144.42 125.734 120.267 125.734C96.1133 125.734 76.5332 106.153 76.5332 82.0002V71.0669Z" fill="#FF6B00"/>
<circle cx="53.1048" cy="186.648" r="31.2381" fill="#04A10B"/>
<circle cx="64.0379" cy="222.572" r="31.2381" fill="#04A10B"/>
<circle cx="92.1536" cy="178.838" r="31.2381" fill="#04A10B"/>
<circle cx="99.9612" cy="210.076" r="31.2381" fill="#04A10B"/>
<rect x="239.655" y="131.2" width="81.6511" height="165.582" rx="40.8255" transform="rotate(15 239.655 131.2)" fill="#FFCC00"/>
<rect x="76.5332" y="-10.9331" width="87.4667" height="103.867" fill="#FF842C"/>
<path fill-rule="evenodd" clip-rule="evenodd" d="M170.431 271.457C167.188 272.674 163.7 273.333 159.981 273.333C135.117 273.333 109.333 243.867 109.333 215.451C109.333 187.035 129.489 164 154.353 164C160.018 164 165.438 165.196 170.431 167.378C175.425 165.196 180.845 164 186.51 164C211.373 164 231.529 187.035 231.529 215.451C231.529 243.867 205.746 273.333 180.882 273.333C177.163 273.333 173.674 272.674 170.431 271.457Z" fill="#FF3B30"/>
<rect y="240.533" width="328" height="87.4667" fill="#E1A670"/>
<path d="M164 71.0669H240.533V87.4669C240.533 108.601 223.401 125.734 202.267 125.734C181.133 125.734 164 108.601 164 87.4669V71.0669Z" fill="#FF6B00"/>
<rect x="164" y="-10.9331" width="76.5333" height="103.867" fill="#FF842C"/>
<path d="M240.533 71.0669H328V82.0002C328 106.153 308.42 125.734 284.267 125.734C260.114 125.734 240.533 106.153 240.533 82.0002V71.0669Z" fill="#FF6B00"/>
<rect x="240.533" y="-10.9331" width="87.4667" height="103.867" fill="#FF842C"/>
<path d="M76.5332 120.267V0" stroke="white" stroke-width="5.46667"/>
<path d="M164 120.267V0" stroke="white" stroke-width="5.46667"/>
<path d="M240.533 120.267V0" stroke="white" stroke-width="5.46667"/>
<rect y="229.6" width="328" height="16.4" fill="#EDB683"/>
</g>
<defs>
<clipPath id="clip0_754_6849">
<rect width="328" height="328" rx="71.0667" fill="white"/>
</clipPath>
</defs>
</svg>
