<svg width="16" height="16" viewBox="0 0 16 16" fill="none" xmlns="http://www.w3.org/2000/svg">
<path fill-rule="evenodd" clip-rule="evenodd" d="M7.99992 13.7334C11.1664 13.7334 13.7333 11.1665 13.7333 8.00004C13.7333 4.83361 11.1664 2.26671 7.99992 2.26671C4.83349 2.26671 2.26659 4.83361 2.26659 8.00004C2.26659 11.1665 4.83349 13.7334 7.99992 13.7334ZM7.99992 14.6667C11.6818 14.6667 14.6666 11.6819 14.6666 8.00004C14.6666 4.31814 11.6818 1.33337 7.99992 1.33337C4.31802 1.33337 1.33325 4.31814 1.33325 8.00004C1.33325 11.6819 4.31802 14.6667 7.99992 14.6667Z" fill="#FF3B30"/>
<rect x="7.46655" y="4" width="0.933333" height="5.33333" rx="0.466667" fill="#FF3B30"/>
<rect x="7.33325" y="10.1333" width="1.33333" height="1.33333" rx="0.666667" fill="#FF3B30"/>
</svg>
